General
Complete name                            :Red Dragon (2002) Hindi Dvd Rip xvid 1.avi
Format                                   : AVI
Format/Info                              : Audio Video Interleave
File size                                : 647 MiB
Duration                                 : 1h 49mn
Overall bit rate                         : 825 Kbps
Writing application                      : Lavf52.39.1

Video
ID                                       : 0
Format                                   : xvid
Codec ID                                 : xvid
Duration                                 : 1h 49mn
Bit rate                                 : 748 Kbps
Width                                    : 480 pixels
Height                                   : 228 pixels
Display aspect ratio                     : 2.105
Frame rate                               : 25.000 fps
Bits/(Pixel*Frame)                       : 0.273
Stream size                              : 587 MiB (91%)

Audio
ID                                       : 1
Format                                   : MPEG Audio
Format version                           : Version 1
Format profile                           : Layer 3
Mode                                     : Joint stereo
Mode extension                           : MS Stereo
Codec ID                                 : 55
Codec ID/Hint                            : MP3
Duration                                 : 1h 49mn
Bit rate mode                            : Constant
Bit rate                                 : 64.0 Kbps
Channel(s)                               : 2 channels
Sampling rate                            : 48.0 KHz
Compression mode                         : Lossy
Stream size                              : 50.2 MiB (8%)
Alignment                                : Aligned on interleaves
Interleave, duration                     : 24 ms (0.60 video frame)

